<svg width="41" height="40" viewBox="0 0 41 40" fill="none" xmlns="http://www.w3.org/2000/svg">
<path d="M34.0043 7.54698C31.3967 6.35435 28.6273 5.48514 25.7367 5C25.3728 5.62664 24.9685 6.47563 24.6855 7.1427C21.611 6.69798 18.5586 6.69798 15.5265 7.1427C15.2434 6.47563 14.8189 5.62664 14.4753 5C11.5645 5.48514 8.79513 6.35435 6.20569 7.54698C0.970227 15.2688 -0.444771 22.8086 0.262726 30.2474C3.73956 32.7742 7.09515 34.3106 10.3921 35.3213C11.2007 34.2297 11.9284 33.0572 12.555 31.8242C11.3624 31.3795 10.2304 30.8337 9.13881 30.1868C9.42181 29.9848 9.70482 29.7624 9.96761 29.54C16.5574 32.552 23.6951 32.552 30.204 29.54C30.487 29.7624 30.7498 29.9848 31.0328 30.1868C29.9412 30.8337 28.8093 31.3795 27.6166 31.8242C28.2432 33.0572 28.971 34.2297 29.7794 35.3213C33.0744 34.3106 36.4502 32.7742 39.9088 30.2474C40.7779 21.6363 38.5322 14.1571 34.0043 7.54698ZM13.4646 25.6589C11.4836 25.6589 9.86649 23.8598 9.86649 21.6565C9.86649 19.4532 11.4432 17.654 13.4646 17.654C15.4658 17.654 17.1031 19.4532 17.0627 21.6565C17.0627 23.8598 15.4658 25.6589 13.4646 25.6589ZM26.7474 25.6589C24.7663 25.6589 23.1472 23.8598 23.1472 21.6565C23.1472 19.4532 24.7259 17.654 26.7474 17.654C28.7486 17.654 30.3859 19.4532 30.3455 21.6565C30.3455 23.8598 28.7688 25.6589 26.7474 25.6589Z" fill="#5165F6"/>
</svg>
