<svg width="40" height="40" viewBox="0 0 40 40" fill="none" xmlns="http://www.w3.org/2000/svg">
<path d="M30.3321 13.1649V8.40276C31.575 7.81554 32.446 6.55805 32.446 5.0986V4.98857C32.446 2.9746 30.798 1.32675 28.7841 1.32675H28.6742C26.6601 1.32675 25.0122 2.9746 25.0122 4.98857V5.0986C25.0122 6.55804 25.8833 7.81573 27.1263 8.40286V13.165C25.2756 13.4509 23.5845 14.2142 22.1893 15.3375L9.11427 5.16638C9.20027 4.83515 9.26068 4.49389 9.26105 4.13577C9.264 1.85457 7.41715 0.0029531 5.13587 3.29996e-06C2.85457 -0.0028493 1.00295 1.84408 1 4.12528C0.997243 6.40647 2.84408 8.25809 5.12537 8.26095C5.86885 8.26187 6.55691 8.05073 7.16006 7.70771L20.022 17.7133C18.928 19.3643 18.2875 21.3421 18.2875 23.4711C18.2875 25.7002 18.9916 27.7618 20.1817 29.4577L16.2701 33.3692C15.9609 33.2765 15.6399 33.2116 15.3003 33.2116C13.4258 33.2116 11.9061 34.7312 11.9061 36.6058C11.9061 38.4803 13.4258 40 15.3003 40C17.1749 40 18.6945 38.4803 18.6945 36.6058C18.6945 36.2664 18.6297 35.9453 18.5369 35.636L22.406 31.767C24.1623 33.1077 26.3493 33.913 28.7294 33.913C34.4961 33.913 39.171 29.238 39.171 23.4711C39.171 18.2507 35.3359 13.9377 30.3321 13.1649ZM28.7294 28.8245C25.7728 28.8245 23.3757 26.4277 23.3757 23.4711C23.3757 20.5146 25.7728 18.1177 28.7294 18.1177C31.6857 18.1177 34.0828 20.5146 34.0828 23.4711C34.0828 26.4277 31.6857 28.8245 28.7294 28.8245Z" fill="#FF5C35"/>
</svg>
