<svg width="132" height="22" viewBox="0 0 132 22" fill="none" xmlns="http://www.w3.org/2000/svg">
<g clip-path="url(#clip0_24281_1323)">
<path d="M38.73 1.38379C41.969 1.38379 44.0268 3.12099 44.1122 5.91919H41.3115C41.2446 4.58479 40.2603 3.80069 38.6854 3.80069C36.9582 3.80069 35.8401 4.60639 35.8401 5.89759C35.8401 6.99819 36.453 7.61319 37.7865 7.91169L40.3049 8.44039C43.0387 9.01229 44.3759 10.3682 44.3759 12.6773C44.3759 15.5582 42.0544 17.4249 38.5331 17.4249C35.0118 17.4249 32.8872 15.6661 32.8203 12.8895H35.621C35.6433 14.2022 36.7353 14.9863 38.5294 14.9863C40.3235 14.9863 41.5715 14.2023 41.5715 12.9111C41.5715 11.8716 41.0255 11.2566 39.7106 10.9832L37.1736 10.433C34.4584 9.86109 33.0395 8.35769 33.0395 5.98389C33.0395 3.27199 35.361 1.38739 38.73 1.38739V1.38379Z" fill="black"/>
<path d="M45.8846 11.915C45.8846 8.63122 48.0947 6.36182 51.2668 6.36182C54.439 6.36182 56.5636 8.45862 56.5636 11.7244V12.5084L48.4216 12.53C48.6185 14.3751 49.6251 15.3066 51.3969 15.3066C52.8641 15.3066 53.8261 14.7563 54.1307 13.7601H56.6045C56.1439 16.0475 54.1753 17.4251 51.3523 17.4251C48.1356 17.4251 45.8809 15.1592 45.8809 11.915H45.8846ZM48.4885 10.8756H53.9152C53.9152 9.43332 52.8863 8.48022 51.2891 8.48022C49.6919 8.48022 48.7522 9.30742 48.4885 10.8756Z" fill="black"/>
<path d="M63.1305 6.36542C64.7723 6.36542 66.195 7.06312 66.8524 8.27162L67.027 6.68192H69.4785V22H66.8301V15.749C66.1504 16.81 64.7278 17.4215 63.1305 17.4215C59.9138 17.4215 58.0752 15.0477 58.0752 11.7855C58.0752 8.52332 60.0884 6.36182 63.1305 6.36182V6.36542ZM63.7434 15.0944C65.6044 15.0944 66.8078 13.8032 66.8078 11.915C66.8078 10.0267 65.6044 8.71402 63.7434 8.71402C61.8825 8.71402 60.7459 10.0483 60.7459 11.915C60.7459 13.7817 61.8825 15.0944 63.7434 15.0944Z" fill="black"/>
<path d="M82.2561 6.68182V17.1481H79.7822L79.5854 15.749C78.9279 16.7453 77.5275 17.4214 76.0826 17.4214C73.5865 17.4214 72.123 15.7885 72.123 13.2241V6.67822H74.7937V12.3142C74.7937 14.3067 75.6034 15.1124 77.0929 15.1124C78.7793 15.1124 79.5891 14.1593 79.5891 12.1667V6.67822H82.2598L82.2561 6.68182Z" fill="black"/>
<path d="M84.1619 11.915C84.1619 8.63122 86.372 6.36182 89.5441 6.36182C92.7162 6.36182 94.8412 8.45862 94.8412 11.7244V12.5084L86.6988 12.53C86.8957 14.3751 87.9023 15.3066 89.6741 15.3066C91.1413 15.3066 92.1033 14.7563 92.4079 13.7601H94.8822C94.4212 16.0475 92.4525 17.4251 89.6295 17.4251C86.4128 17.4251 84.1582 15.1592 84.1582 11.915H84.1619ZM86.7657 10.8756H92.1925C92.1925 9.43332 91.1636 8.48022 89.5664 8.48022C87.9692 8.48022 87.0294 9.30742 86.7657 10.8756Z" fill="black"/>
<path d="M96.9883 17.1479V6.68173H99.4623L99.6813 8.03763C100.361 6.97663 101.672 6.36523 103.139 6.36523C105.854 6.36523 107.254 7.99803 107.254 10.7099V17.1515H104.584V11.3249C104.584 9.56623 103.685 8.71743 102.307 8.71743C100.665 8.71743 99.6583 9.81793 99.6583 11.5156V17.1515H96.9883V17.1479Z" fill="black"/>
<path d="M114.65 6.36542C117.603 6.36542 119.616 7.95512 119.902 10.4763H117.231C116.923 9.28942 116.028 8.67442 114.758 8.67442C113.049 8.67442 111.912 9.92602 111.912 11.8934C111.912 13.8608 112.964 15.0944 114.668 15.0944C116.002 15.0944 116.945 14.4578 117.228 13.3141H119.921C119.594 15.7526 117.491 17.4251 114.668 17.4251C111.385 17.4251 109.242 15.2203 109.242 11.8934C109.242 8.56652 111.452 6.36182 114.646 6.36182L114.65 6.36542Z" fill="black"/>
<path d="M121.28 11.915C121.28 8.63122 123.49 6.36182 126.662 6.36182C129.834 6.36182 131.959 8.45862 131.959 11.7244V12.5084L123.817 12.53C124.014 14.3751 125.021 15.3066 126.792 15.3066C128.26 15.3066 129.222 14.7563 129.526 13.7601H132C131.539 16.0475 129.571 17.4251 126.748 17.4251C123.531 17.4251 121.276 15.1592 121.276 11.915H121.28ZM123.884 10.8756H129.311C129.311 9.43332 128.282 8.48022 126.685 8.48022C125.087 8.48022 124.148 9.30742 123.884 10.8756Z" fill="black"/>
<path d="M11.9716 3.86209C12.5511 3.00249 13.2123 2.28319 14.022 1.69329C15.4038 0.682589 16.9527 0.103589 18.6836 0.0316893C19.6048 -0.00792073 20.5297 0.024489 21.4732 0.024489V2.99889C21.1203 2.99889 20.7674 2.99889 20.4108 2.99889C19.5862 3.00609 18.7542 2.95569 17.9407 3.14999C16.2544 3.55279 15.0546 4.53109 14.2672 6.02729C15.1958 7.05229 16.3212 7.75369 17.7327 7.90109C18.6205 7.99459 19.5194 7.95509 20.4145 7.96949C20.76 7.97669 21.1054 7.96949 21.4732 7.96949V10.9799C21.2132 10.9799 20.968 10.9799 20.7191 10.9799C19.7459 10.9655 18.7728 10.9871 17.8033 10.9295C16.0204 10.8216 14.4492 10.1706 13.0711 9.08079C12.9894 9.01609 12.9114 8.95499 12.8037 8.87579C12.2056 10.0304 11.6225 11.1597 11.0245 12.3178C11.8899 13.1343 12.7257 13.9867 13.6357 14.76C14.6535 15.6232 15.8978 15.9468 17.2424 15.9433C18.535 15.9397 19.824 15.9433 21.1166 15.9433C21.2317 15.9433 21.4769 15.9433 21.4769 15.9433V18.9357C21.4769 18.9357 18.301 18.9537 16.8153 18.9285C14.6423 18.8925 12.7665 18.1228 11.1842 16.695C10.6233 16.1878 10.107 15.6339 9.5907 15.1232C9.1078 15.6591 8.6918 16.1878 8.2089 16.6446C6.842 17.9322 5.1965 18.7055 3.291 18.8673C2.24723 18.9572 0.026 18.9321 0.026 18.9321V15.9433C0.026 15.9433 0.26001 15.9433 0.37144 15.9433C1.17005 15.9325 1.97608 15.972 2.76726 15.9037C4.7656 15.7382 6.218 14.7492 7.1577 13.0479C7.1949 12.9796 7.1614 12.8285 7.1057 12.771C5.9765 11.6093 4.6059 10.9727 2.93812 10.9835C2.08009 10.9871 1.22205 10.9835 0.36401 10.9835C0.26001 10.9835 0.026 10.9835 0.026 10.9835V7.97669C0.026 7.97669 2.58896 7.95149 3.8259 8.03059C5.6088 8.14209 7.1689 8.82909 8.5321 9.94039C8.5766 9.97639 8.6212 10.0124 8.6844 10.0591C8.7252 10.0016 9.9547 7.67089 10.4747 6.64589C10.4747 6.64589 10.4636 6.63509 10.3559 6.52719C9.6241 5.81149 8.9035 5.08499 8.142 4.39799C7.0834 3.43769 5.7982 3.00609 4.3533 3.00249C3.0236 2.99889 1.69378 3.00249 0.36401 3.00249C0.26001 3.00249 0.12629 3.00249 0 3.00249V0.00288925C0 0.00288925 3.369 -0.0151206 4.9365 0.0387894C7.0314 0.110789 8.8329 0.901989 10.3559 2.28679C10.9019 2.78309 11.4108 3.31899 11.9716 3.86929V3.86209Z" fill="black"/>
</g>
<defs>
<clipPath id="clip0_24281_1323">
<rect width="132" height="22" fill="white"/>
</clipPath>
</defs>
</svg>
